<?xml version="1.0" encoding="UTF-8"?>
<svg version="1.1" xmlns="http://www.w3.org/2000/svg" width="100" height="25">
<path d="M0 0 C33 0 66 0 100 0 C100 8.25 100 16.5 100 25 C67 25 34 25 0 25 C0 16.75 0 8.5 0 0 Z M2 2 C2 8.93 2 15.86 2 23 C8.93 23 15.86 23 23 23 C23 22.01 23 21.02 23 20 C23.66 20 24.32 20 25 20 C25 20.99 25 21.98 25 23 C32.92 23 40.84 23 49 23 C49 21.02 49 19.04 49 17 C49.66 17 50.32 17 51 17 C51 18.98 51 20.96 51 23 C58.59 23 66.18 23 74 23 C74 21.68 74 20.36 74 19 C74.66 19 75.32 19 76 19 C76 20.32 76 21.64 76 23 C83.26 23 90.52 23 98 23 C98 16.07 98 9.14 98 2 C90.74 2 83.48 2 76 2 C76 3.32 76 4.64 76 6 C75.34 6 74.68 6 74 6 C74 4.68 74 3.36 74 2 C66.41 2 58.82 2 51 2 C51 3.98 51 5.96 51 8 C50.34 8 49.68 8 49 8 C49 6.02 49 4.04 49 2 C41.08 2 33.16 2 25 2 C25 2.99 25 3.98 25 5 C24.34 5 23.68 5 23 5 C23 4.01 23 3.02 23 2 C16.07 2 9.14 2 2 2 Z " fill="#000000" transform="translate(0,0)"/>
</svg>
